<svg width="81" height="80" viewBox="0 0 81 80" fill="none" xmlns="http://www.w3.org/2000/svg">
<path d="M16.6279 13.3336H72.7759V8H16.6279C12.197 8 8.60672 11.5832 8.60672 16C8.60672 20.4168 12.197 24 16.6279 24H32.6694C35.6236 24 38.0179 26.388 38.0179 29.3336H27.3225C17.0289 29.3336 8.60672 37.7344 8.60672 48V66.6664C8.60672 69.612 11.001 72 13.9544 72H19.3021L24.649 66.6664H38.0179V61.3336H43.3656V66.6664H56.7336L62.0813 72H67.4282C70.3816 72 72.7759 69.612 72.7759 66.6664V48C72.7759 37.7344 64.3529 29.3336 54.0602 29.3336H43.3648C43.3648 23.4432 38.5761 18.6672 32.6694 18.6672H16.6279C15.1512 18.6672 13.9544 17.4744 13.9544 16.0008C13.9544 14.5272 15.1512 13.3336 16.6279 13.3336ZM35.3436 50.6664H28.6596V57.3336H23.3119V50.6664H16.6279V45.3336H23.3119V38.6672H28.6596V45.3336H35.3436V50.6664ZM62.0813 45.3336C63.5564 45.3336 64.7548 46.5288 64.7548 48C64.7548 49.4712 63.5564 50.6664 62.0813 50.6664C60.603 50.6664 59.4071 49.4712 59.4071 48C59.4071 46.5288 60.603 45.3336 62.0813 45.3336ZM55.3965 38.6664C56.8724 38.6664 58.0708 39.8592 58.0708 41.3328C58.0708 42.804 56.8724 43.9992 55.3965 43.9992C53.9214 44 52.7231 42.8048 52.7231 41.3336C52.7231 39.8592 53.9214 38.6664 55.3965 38.6664ZM55.3965 52C56.8724 52 58.0708 53.1928 58.0708 54.6664C58.0708 56.1384 56.8724 57.3336 55.3965 57.3336C53.9214 57.3336 52.7231 56.1384 52.7231 54.6664C52.7231 53.1928 53.9214 52 55.3965 52ZM48.7125 45.3336C50.1876 45.3336 51.3859 46.5288 51.3859 48C51.3859 49.4712 50.1876 50.6664 48.7125 50.6664C47.2374 50.6664 46.039 49.4712 46.039 48C46.039 46.5288 47.2374 45.3336 48.7125 45.3336Z" fill="#8055C2"/>
</svg>
