<svg width="20" height="20" viewBox="0 0 20 20" fill="none" xmlns="http://www.w3.org/2000/svg">
<path fill-rule="evenodd" clip-rule="evenodd" d="M10 0.168579C4.47717 0.168579 0 4.39333 0 9.6048C0 14.8163 4.47717 19.041 10 19.041C15.5228 19.041 20 14.8163 20 9.6048C20 4.39333 15.5228 0.168579 10 0.168579ZM9.7215 8.16499L9.7005 7.83845C9.63754 6.99218 10.1901 6.2192 11.0645 5.91936C11.3862 5.81274 11.9318 5.79941 12.2886 5.89271C12.4285 5.93269 12.6943 6.06594 12.8831 6.1859L13.2259 6.4058L13.6036 6.29253C13.8135 6.23253 14.0932 6.13258 14.2191 6.06594C14.338 6.00598 14.443 5.97264 14.443 5.99265C14.443 6.10593 14.1842 6.49242 13.9673 6.70564C13.6735 7.00551 13.7575 7.03217 14.352 6.83224C14.7088 6.71897 14.7158 6.71897 14.6458 6.84557C14.6038 6.91221 14.387 7.14544 14.1562 7.35866C13.7645 7.72518 13.7435 7.76517 13.7435 8.07169C13.7435 8.5448 13.5057 9.531 13.2678 10.0708C12.8272 11.0836 11.8829 12.1298 10.9386 12.6562C9.60958 13.3959 7.83987 13.5824 6.35 13.1493C5.85337 13.0027 5 12.6295 5 12.5629C5 12.5429 5.25879 12.5163 5.57358 12.5096C6.23108 12.4963 6.88858 12.323 7.44817 12.0165L7.82592 11.8033L7.39221 11.6633C6.77667 11.4634 6.22408 11.0036 6.08421 10.5705C6.04221 10.4306 6.05621 10.4239 6.44792 10.4239L6.85362 10.4173L6.51087 10.264C6.10517 10.0707 5.73446 9.74422 5.55258 9.41104C5.41967 9.17116 5.25183 8.56477 5.30079 8.51814C5.31475 8.49817 5.46167 8.53811 5.62954 8.59143C6.11217 8.75801 6.17512 8.71803 5.89533 8.43817C5.37071 7.93176 5.20983 7.17875 5.46167 6.46576L5.58058 6.14591L6.04221 6.57903C6.98654 7.45196 8.09871 7.97174 9.37175 8.125L9.7215 8.16499Z" fill="white"/>
</svg>
