<svg width="20" height="20" viewBox="0 0 20 20" fill="none" xmlns="http://www.w3.org/2000/svg">
<path fill-rule="evenodd" clip-rule="evenodd" d="M10 0C4.47717 0 0 4.47717 0 10C0 15.5228 4.47717 20 10 20C15.5228 20 20 15.5228 20 10C20 4.47717 15.5228 0 10 0ZM6.21046 4.33333H14.1229C14.7901 4.33333 15.3333 4.87 15.3333 5.535V16L14.0638 14.8917L13.3493 14.2383L12.5935 13.5442L12.9065 14.6233H6.21046C5.54325 14.6233 5 14.0867 5 13.4217V5.535C5 4.87 5.54325 4.33333 6.21046 4.33333Z" fill="white"/>
<path fill-rule="evenodd" clip-rule="evenodd" d="M11.8436 11.9516C11.8436 11.9516 11.631 11.7008 11.4539 11.4791C12.2274 11.2633 12.5226 10.785 12.5226 10.785C12.2805 10.9425 12.0503 11.0533 11.8436 11.1291C11.5484 11.2516 11.2649 11.3333 10.9874 11.38C10.4205 11.485 9.90092 11.4558 9.45808 11.3741C9.1215 11.31 8.83217 11.2166 8.59008 11.1233C8.45425 11.0708 8.30662 11.0066 8.15904 10.925C8.15017 10.9191 8.14129 10.9147 8.13246 10.9104C8.12358 10.906 8.11475 10.9016 8.10587 10.8958C8.09408 10.89 8.08817 10.8841 8.08225 10.8783C7.97596 10.82 7.91692 10.7791 7.91692 10.7791C7.91692 10.7791 8.20037 11.2458 8.95025 11.4675C8.77312 11.6891 8.55462 11.9516 8.55462 11.9516C7.24971 11.9108 6.75371 11.065 6.75371 11.065C6.75371 9.18662 7.60396 7.66412 7.60396 7.66412C8.45425 7.03412 9.26321 7.05162 9.26321 7.05162L9.32225 7.12162C8.25942 7.42496 7.76929 7.88579 7.76929 7.88579C7.76929 7.88579 7.89921 7.81579 8.11771 7.71662C8.7495 7.44246 9.25142 7.36662 9.45808 7.34912L9.47129 7.34691C9.50108 7.34191 9.52754 7.33746 9.55846 7.33746C9.91862 7.29079 10.3261 7.27912 10.7512 7.32579C11.3122 7.38996 11.9145 7.55329 12.5285 7.88579C12.5285 7.88579 12.0621 7.44829 11.0582 7.14496L11.1409 7.05162C11.1409 7.05162 11.9499 7.03412 12.8002 7.66412C12.8002 7.66412 13.6505 9.18662 13.6505 11.065C13.6505 11.065 13.1485 11.9108 11.8436 11.9516ZM9.26417 9.33329C8.93025 9.33329 8.66662 9.63362 8.66662 9.99996C8.66662 10.3663 8.93612 10.6666 9.26417 10.6666C9.59808 10.6666 9.86171 10.3663 9.86171 9.99996C9.86758 9.63362 9.59808 9.33329 9.26417 9.33329ZM10.8049 9.99996C10.8049 9.63362 11.0685 9.33329 11.4025 9.33329C11.7364 9.33329 12 9.63362 12 9.99996C12 10.3663 11.7364 10.6666 11.4025 10.6666C11.0744 10.6666 10.8049 10.3663 10.8049 9.99996Z" fill="white"/>
</svg>
