<svg width="70" height="70" viewBox="0 0 70 70" fill="none" xmlns="http://www.w3.org/2000/svg">
  <path fill-rule="evenodd" clip-rule="evenodd" d="M0 35C0 54.3299 15.6701 70 35 70C54.3299 70 70 54.3299 70 35C70 15.6701 54.3299 0 35 0C15.6701 0 0 15.6701 0 35ZM28.5833 51.0417L29.1788 42.12L29.1783 42.1196L45.408 27.4735C46.1202 26.8414 45.2525 26.5331 44.3069 27.1065L24.2773 39.7429L15.6256 37.0427C13.7572 36.4706 13.7438 35.1867 16.045 34.2637L49.7588 21.2638C51.2986 20.5647 52.7848 21.6336 52.197 23.9903L46.4555 51.0462C46.0546 52.9689 44.8929 53.4287 43.2833 52.5405L34.5373 46.0788L30.3333 50.1667C30.3201 50.1795 30.3069 50.1923 30.2938 50.2052C29.8236 50.6629 29.4346 51.0417 28.5833 51.0417Z" fill="#fff"/>
</svg>
