<svg width="80" height="61" viewBox="0 0 80 61" fill="none" xmlns="http://www.w3.org/2000/svg">
<path d="M76.6 6.56435C74.43 2.36193 72.075 1.58895 67.28 1.295C62.49 0.941165 50.445 0.794189 40.01 0.794189C29.555 0.794189 17.505 0.941166 12.72 1.28955C7.935 1.58895 5.575 2.35649 3.385 6.56435C1.15 10.7613 0 17.9904 0 30.7174C0 30.7283 0 30.7337 0 30.7337C0 30.7446 0 30.75 0 30.75V30.7609C0 43.4335 1.15 50.717 3.385 54.8704C5.575 59.0728 7.93 59.8349 12.715 60.1888C17.505 60.4936 29.555 60.6732 40.01 60.6732C50.445 60.6732 62.49 60.4936 67.285 60.1942C72.08 59.8404 74.435 59.0783 76.605 54.8758C78.86 50.7224 80 43.4389 80 30.7664C80 30.7664 80 30.75 80 30.7392C80 30.7392 80 30.7283 80 30.7228C80 17.9904 78.86 10.7613 76.6 6.56435Z" fill="#F44336"/>
<path d="M30 47.0644V14.4031L55 30.7337L30 47.0644Z" fill="#FAFAFA"/>
</svg>
